<svg width="66" height="65" viewBox="0 0 66 65" fill="none" xmlns="http://www.w3.org/2000/svg">
<g clip-path="url(#clip0_550_19267)">
<path d="M7.8252 24.502L9.01855 26.584C10.0723 28.4248 11.7988 29.7832 13.8428 30.3672L21.1934 32.4619C23.377 33.084 24.875 35.0772 24.875 37.3496V42.415C24.875 43.8115 25.6621 45.0811 26.9062 45.7031C28.1504 46.3252 28.9375 47.5947 28.9375 48.9912V53.9424C28.9375 55.9229 30.8291 57.3574 32.7334 56.8115C34.7773 56.2275 36.3643 54.5898 36.8848 52.5205L37.2402 51.0986C37.7734 48.9531 39.1699 47.1123 41.0869 46.0205L42.1152 45.4365C44.0195 44.3574 45.1875 42.3262 45.1875 40.1426V39.0889C45.1875 37.4766 44.54 35.9277 43.3975 34.7852L42.9023 34.29C41.7598 33.1475 40.2109 32.5 38.5986 32.5H33.127C31.7178 32.5 30.3213 32.1318 29.0898 31.4336L24.71 28.9326C24.1641 28.6152 23.7451 28.1074 23.542 27.5107C23.1357 26.292 23.6816 24.9717 24.8369 24.4004L25.5859 24.0195C26.4238 23.6006 27.4014 23.5244 28.29 23.8291L31.2354 24.8066C32.2764 25.1494 33.4189 24.7559 34.0156 23.8545C34.6123 22.9658 34.5488 21.7852 33.8633 20.96L32.1367 18.8906C30.8672 17.3672 30.8799 15.1455 32.1748 13.6475L34.168 11.3242C35.2852 10.0166 35.4629 8.15039 34.6123 6.66504L34.3076 6.13184C33.8633 6.10645 33.4316 6.09375 32.9873 6.09375C21.2061 6.09375 11.2148 13.8252 7.8252 24.502ZM59.4062 32.5C59.4062 27.8281 58.1875 23.4355 56.0547 19.6143L52.8047 20.9219C50.8115 21.7217 49.7832 23.9434 50.4561 25.9746L52.6016 32.4111C53.0459 33.7314 54.125 34.7344 55.4707 35.0645L59.165 35.9912C59.3174 34.8486 59.3936 33.6807 59.3936 32.5H59.4062ZM65.5 32.5C65.5 50.4512 50.9512 65 33 65C15.0488 65 0.5 50.4512 0.5 32.5C0.5 14.5488 15.0488 0 33 0C50.9512 0 65.5 14.5488 65.5 32.5Z" fill="#F99707"/>
</g>
<defs>
<clipPath id="clip0_550_19267">
<rect width="65" height="65" fill="white" transform="translate(0.5)"/>
</clipPath>
</defs>
</svg>
