<svg width="66" height="65" viewBox="0 0 66 65" fill="none" xmlns="http://www.w3.org/2000/svg">
<path fill-rule="evenodd" clip-rule="evenodd" d="M12.0982 4H54.8482C56.9857 4 58.4107 5.425 58.4107 7.5625L60.4464 57.4375C60.4464 59.575 59.0214 61 56.8839 61H10.0625C7.925 61 6.5 59.575 6.5 57.4375L8.53571 7.5625C8.53571 5.425 9.96072 4 12.0982 4ZM33.4757 36.0638C41.3132 36.0638 47.7257 29.6513 47.7257 21.8138V18.2513H40.6007V21.8138C40.6007 25.7326 37.3944 28.9388 33.4757 28.9388C29.5569 28.9388 26.3507 25.7326 26.3507 21.8138V18.2513H19.2257V21.8138C19.2257 29.6513 25.6382 36.0638 33.4757 36.0638Z" fill="#F99707"/>
</svg>
