<svg width="66" height="65" viewBox="0 0 66 65" fill="none" xmlns="http://www.w3.org/2000/svg">
<path fill-rule="evenodd" clip-rule="evenodd" d="M63.7494 58.501C63.7494 60.2742 62.3555 61.7118 60.6364 61.7118H5.36364C3.64449 61.7118 2.25064 60.2742 2.25064 58.501C2.25064 56.7253 3.64449 55.2877 5.36364 55.2877H8.95709V34.6087L9.26989 34.6474H9.27239C12.3553 34.9881 15.4508 34.1132 17.938 32.2033C19.6746 33.5376 21.7215 34.3765 23.8711 34.6346C26.0232 34.8927 28.2003 34.5623 30.1872 33.677V55.2876H50.8143V33.9532C52.0605 34.3455 53.3567 34.5443 54.658 34.5417C54.9908 34.5417 55.2986 34.5417 55.6564 34.503H55.6589C56.1319 34.4642 56.6023 34.3971 57.0678 34.3042V55.2878H60.6612C62.3704 55.3033 63.7492 56.7357 63.7492 58.5011L63.7494 58.501ZM44.0259 44.2281C43.6531 44.2281 43.2902 44.3262 42.9674 44.5198L35.9207 48.7217C35.4127 48.9978 35.0349 49.4753 34.8772 50.0457C34.717 50.6161 34.7896 51.2278 35.0774 51.7414C35.3652 52.255 35.8431 52.6241 36.4011 52.7661C36.9592 52.9081 37.5498 52.8099 38.0352 52.4951L45.082 48.2932V48.2906C45.9128 47.7976 46.3182 46.7911 46.0704 45.8387C45.8227 44.8837 44.9819 44.2204 44.026 44.2204L44.0259 44.2281ZM45.8575 36.3699C45.5773 35.8692 45.1143 35.5027 44.5738 35.353C44.0308 35.2033 43.4552 35.2807 42.9673 35.5698L35.9154 39.7665C35.4074 40.0427 35.0296 40.5202 34.8694 41.0906C34.7093 41.661 34.7818 42.2727 35.0696 42.7863C35.3574 43.2999 35.8353 43.6689 36.3934 43.8135C36.9514 43.9555 37.542 43.8548 38.0299 43.5399L45.0767 39.3381C46.0851 38.7393 46.438 37.4152 45.8625 36.3699L45.8575 36.3699ZM47.2736 26.1893C47.4588 26.1893 47.6314 26.29 47.7265 26.4552C49.2104 28.9226 51.8254 30.4221 54.6407 30.4196H55.2813C60.5538 30.004 63.6919 24.109 61.5272 19.1409L53.6349 4.92188C53.0794 3.92047 52.0533 3.30104 50.9373 3.28809H14.3071C13.1785 3.28809 12.1375 3.91268 11.5769 4.92188L3.69932 19.1197C1.57729 23.9952 4.54263 29.8566 9.70008 30.3779C9.99286 30.4089 10.2856 30.4244 10.5784 30.4244C13.3936 30.427 16.0086 28.9274 17.49 26.46C17.5851 26.2948 17.7578 26.1942 17.9429 26.1942C18.1281 26.1942 18.2983 26.2948 18.3934 26.46C19.8648 28.9145 22.4547 30.4167 25.2524 30.4373C28.0501 30.4553 30.6601 28.9868 32.1614 26.5529C32.2565 26.3929 32.4267 26.2922 32.6094 26.2922C32.792 26.2922 32.9622 26.3929 33.0573 26.5529C34.5562 28.9893 37.1662 30.458 39.9637 30.4399C42.7614 30.4218 45.3539 28.9222 46.8228 26.4677C46.9154 26.3 47.0855 26.1941 47.2732 26.189L47.2736 26.1893Z" fill="#F99707"/>
</svg>
